# xmcd CD database file
#
# Track frame offsets:
#	150
#	12552
#	25702
#	37925
#	50660
#	61450
#	74480
#	85302
#	98565
#	109967
#	121682
#	134840
#
# Disc length: 1972 seconds
#
# Revision: 0
# Processed by: cddbd v1.5PL3 Copyright (c) Steve Scherf et al.
# Submitted via: CDex 1.51
#
DISCID=a507b20c
DTITLE=Altamiro Carrilho - Recordar é Viver
DYEAR=1994
DGENRE=Velhas Cancoes do Brasil
TTITLE0=Va por mim - Luiz dos Santos e Teixeira Filho
TTITLE1=Mimi - Uriel Lourival
TTITLE2=Boneca de Pixe - Ary Barroso e Luiz Iglesias
TTITLE3=Saudades do Matao - Jorge Galati, Antenógenes Silva e Raul Torres
TTITLE4=Pinto Pelado - Fernando Lobo
TTITLE5=Gosto que me Enrosco - Sinhô
TTITLE6=Revendo o Passado - Freire Junior
TTITLE7=Tatu subiu no pau - Eduardo Souto
TTITLE8=O Gaucho - Mojica
TTITLE9=O Teu Cabelo nao Nega - Lamartine Babo
TTITLE10=Ultima Inspiração - Peterpan
TTITLE11=No Tabuleiro da Baiana - Ary Barroso
EXTD=YEAR: 1994
EXTT0=
EXTT1=
EXTT2=
EXTT3=
EXTT4=
EXTT5=
EXTT6=
EXTT7=
EXTT8=
EXTT9=
EXTT10=
EXTT11=
PLAYORDER=
